<svg width="22" height="23" viewBox="0 0 22 23" fill="none" xmlns="http://www.w3.org/2000/svg">
<g id="Arrow - Right 2">
<g id="Iconly/Light-Outline/Arrow---Right-2">
<g id="Arrow---Right-2">
<path id="Stroke-1" d="M7.06585 16.8599L7.05379 16.8739L7.04279 16.8887C6.70198 17.348 6.73935 17.9991 7.15588 18.4157C7.61372 18.8735 8.35603 18.8735 8.81387 18.4157L15.0894 12.1402L15.1023 12.1272L15.1143 12.1133L15.1794 12.0379L15.1915 12.024L15.2025 12.0091C15.5433 11.5498 15.5059 10.8987 15.0894 10.4822L8.81387 4.20668L8.80092 4.19372L8.78705 4.18175L8.71164 4.11665L8.69766 4.10459L8.68284 4.09359C8.22351 3.75277 7.57241 3.79014 7.15588 4.20668L7.14293 4.21963L7.13096 4.23349L7.06586 4.30891L7.05379 4.32288L7.04279 4.33771C6.70198 4.79703 6.73935 5.44812 7.15587 5.86465C7.15587 5.86466 7.15588 5.86466 7.15588 5.86466L12.6021 11.3112L7.15587 16.7577L7.14292 16.7706L7.13096 16.7845L7.06585 16.8599Z" fill="black" stroke="black"/>
</g>
</g>
</g>
</svg>
