<svg width="22" height="23" viewBox="0 0 22 23" fill="none" xmlns="http://www.w3.org/2000/svg">
<g id="Arrow - Right 2">
<g id="Iconly/Light-Outline/Arrow---Right-2">
<g id="Arrow---Right-2">
<path id="Stroke-1" d="M14.9341 16.8599L14.9462 16.8739L14.9572 16.8887C15.298 17.348 15.2607 17.9991 14.8441 18.4157C14.3863 18.8735 13.644 18.8735 13.1861 18.4157L6.91064 12.1402L6.89768 12.1272L6.88571 12.1133L6.82061 12.0379L6.80855 12.024L6.79755 12.0091C6.45673 11.5498 6.49411 10.8987 6.91064 10.4822L13.1861 4.20668L13.1991 4.19372L13.2129 4.18175L13.2884 4.11665L13.3023 4.10459L13.3172 4.09359C13.7765 3.75277 14.4276 3.79014 14.8441 4.20668L14.8571 4.21963L14.869 4.23349L14.9341 4.30891L14.9462 4.32288L14.9572 4.33771C15.298 4.79703 15.2607 5.44812 14.8441 5.86465C14.8441 5.86466 14.8441 5.86466 14.8441 5.86466L9.3979 11.3112L14.8441 16.7577L14.8571 16.7706L14.869 16.7845L14.9341 16.8599Z" fill="black" stroke="black"/>
</g>
</g>
</g>
</svg>
