<svg width="89" height="23" viewBox="0 0 89 23" fill="none" xmlns="http://www.w3.org/2000/svg">
<mask id="path-1-inside-1_813_6" fill="white">
<path d="M13.464 1.968C13.464 2.18133 13.4107 2.768 13.304 3.728C13.0693 6.07467 12.952 8.45333 12.952 10.864C12.952 12.976 12.984 14.5867 13.048 15.696C13.112 16.8053 13.272 17.6587 13.528 18.256C13.784 18.832 14.1787 19.12 14.712 19.12C15.736 19.12 16.248 19.4613 16.248 20.144C16.248 20.592 16.024 20.976 15.576 21.296C15.128 21.5947 14.6373 21.744 14.104 21.744C13.464 21.744 12.8667 21.5947 12.312 21.296C11.7573 20.9973 11.32 20.5387 11 19.92C10.552 20.5813 9.90133 21.1147 9.048 21.52C8.216 21.904 7.40533 22.096 6.616 22.096C5.4 22.096 4.32267 21.84 3.384 21.328C2.44533 20.816 1.72 20.1227 1.208 19.248C0.696 18.352 0.44 17.3707 0.44 16.304C0.44 15.28 0.557333 14.2987 0.792 13.36C1.048 12.4 1.38933 11.6107 1.816 10.992C2.392 10.1813 3.16 9.54133 4.12 9.072C5.10133 8.58133 6.06133 8.336 7 8.336C7.576 8.336 8.12 8.45333 8.632 8.688C9.144 8.90133 9.592 9.168 9.976 9.488C9.976 8.05867 9.96533 7.16267 9.944 6.8V6.128C9.944 4.144 10.072 2.69333 10.328 1.776C10.5627 0.879999 11.128 0.431999 12.024 0.431999C12.5147 0.431999 12.8773 0.538666 13.112 0.751999C13.3467 0.965332 13.464 1.37067 13.464 1.968ZM3.608 16.24C3.608 17.2213 3.88533 18.0107 4.44 18.608C5.016 19.2053 5.69867 19.504 6.488 19.504C7.61867 19.504 8.45067 19.152 8.984 18.448C9.53867 17.744 9.816 16.8373 9.816 15.728L9.784 12.56C8.952 11.6427 8.088 11.184 7.192 11.184C6.57333 11.184 5.98667 11.344 5.432 11.664C4.89867 11.9627 4.472 12.4213 4.152 13.04C3.78933 13.744 3.608 14.8107 3.608 16.24ZM32.9123 20.464C32.9123 20.9333 32.6563 21.328 32.1443 21.648C31.6536 21.968 31.1949 22.128 30.7683 22.128C29.9576 22.128 29.3069 22.032 28.8163 21.84C28.3469 21.6267 27.9096 21.2427 27.5043 20.688C26.9496 21.1787 26.1923 21.552 25.2323 21.808C24.2723 22.0427 23.3869 22.16 22.5763 22.16C21.2536 22.16 20.1656 21.808 19.3123 21.104C18.4589 20.3787 18.0323 19.3227 18.0323 17.936C18.0323 17.3387 18.1923 16.7947 18.5123 16.304C18.8323 15.792 19.2696 15.344 19.8243 14.96C20.4429 14.5547 21.1469 14.2453 21.9363 14.032C22.7256 13.7973 23.5469 13.68 24.4003 13.68C24.8483 13.68 25.3816 13.7653 26.0003 13.936C26.6189 14.1067 27.0989 14.288 27.4403 14.48V13.968C27.4403 12.816 27.1629 12.0267 26.6083 11.6C26.0536 11.152 25.1576 10.928 23.9203 10.928C23.5576 10.928 23.1949 11.0027 22.8323 11.152C22.4909 11.3013 22.0963 11.504 21.6483 11.76C21.0509 12.08 20.4856 12.24 19.9523 12.24C19.7603 12.24 19.5789 12.112 19.4083 11.856C19.2376 11.5787 19.1523 11.3333 19.1523 11.12C19.1523 10.5013 19.4403 9.968 20.0163 9.52C20.6136 9.072 21.3176 8.74133 22.1283 8.528C22.9389 8.29333 23.6643 8.176 24.3043 8.176C24.9443 8.176 25.6803 8.304 26.5123 8.56C27.3443 8.79467 28.0269 9.12533 28.5603 9.552C29.2003 10.1067 29.6909 10.7573 30.0323 11.504C30.3949 12.2293 30.5763 13.0293 30.5763 13.904C30.5763 14.1813 30.5549 14.5973 30.5123 15.152C30.4696 15.7493 30.4483 16.2613 30.4483 16.688C30.4483 16.88 30.4269 17.168 30.3843 17.552C30.3416 18.0213 30.3203 18.3947 30.3203 18.672C30.3203 18.928 30.4163 19.152 30.6083 19.344C30.8003 19.5147 31.0243 19.6 31.2803 19.6L32.1763 19.568C32.4109 19.568 32.5923 19.6533 32.7203 19.824C32.8483 19.9947 32.9123 20.208 32.9123 20.464ZM22.6083 19.632C23.5256 19.632 24.2936 19.536 24.9123 19.344C25.5309 19.152 26.2776 18.8 27.1523 18.288C27.2376 17.9253 27.2909 17.4453 27.3123 16.848C26.1389 16.2933 25.1683 16.016 24.4003 16.016C23.5256 16.016 22.7469 16.176 22.0643 16.496C21.3816 16.816 21.0403 17.3813 21.0403 18.192C21.0403 18.5973 21.2109 18.9387 21.5523 19.216C21.8936 19.4933 22.2456 19.632 22.6083 19.632ZM35.0078 10.992C34.4744 10.544 34.2078 10.0213 34.2078 9.424C34.2078 9.12533 34.3571 8.85867 34.6558 8.624C34.9544 8.368 35.3171 8.24 35.7438 8.24C36.5118 8.24 37.1411 8.44267 37.6318 8.848C38.1224 9.25333 38.5491 9.84 38.9118 10.608C39.3598 9.776 39.9251 9.168 40.6078 8.784C41.3118 8.37867 42.1971 8.176 43.2638 8.176C43.9038 8.176 44.4158 8.26133 44.7998 8.432C45.2051 8.58133 45.5358 8.80533 45.7918 9.104C46.0478 9.38133 46.3678 9.808 46.7518 10.384C47.3064 9.70133 47.9998 9.168 48.8318 8.784C49.6851 8.4 50.5598 8.208 51.4558 8.208C52.5011 8.208 53.4504 8.64533 54.3038 9.52C55.1784 10.3947 55.7651 11.3867 56.0638 12.496C56.1704 12.9653 56.2451 14.0747 56.2878 15.824L56.4158 17.68C56.5224 18.8107 56.8851 19.4827 57.5038 19.696C57.8024 19.7813 58.0478 19.888 58.2398 20.016C58.4531 20.1227 58.5598 20.24 58.5598 20.368C58.6024 20.88 58.4851 21.2533 58.2078 21.488C58.0158 21.616 57.7491 21.7547 57.4078 21.904C57.0664 22.0533 56.7998 22.128 56.6078 22.128C55.4558 22.128 54.6344 21.712 54.1438 20.88C53.8238 20.3253 53.6211 19.696 53.5358 18.992C53.4504 18.2667 53.4078 17.2853 53.4078 16.048C53.4078 14.7253 53.2478 13.5947 52.9278 12.656C52.6078 11.696 51.8824 11.216 50.7518 11.216C50.3464 11.216 49.9411 11.344 49.5358 11.6C49.1518 11.8347 48.8744 12.1333 48.7038 12.496C48.4051 13.072 48.2024 13.7013 48.0958 14.384C47.9891 15.0453 47.9358 15.8133 47.9358 16.688C47.9358 17.2427 47.9678 17.808 48.0318 18.384C48.0318 18.5547 48.0424 18.832 48.0638 19.216C48.1064 19.5787 48.1278 19.9093 48.1278 20.208C48.1278 20.7413 48.0211 21.2 47.8078 21.584C47.6158 21.9467 47.2744 22.128 46.7838 22.128C45.6104 22.128 44.9918 21.5093 44.9278 20.272C44.9278 19.3973 44.9384 18.928 44.9598 18.864V17.488C44.9598 16.72 44.9278 15.9733 44.8638 15.248C44.7998 14.5227 44.7251 13.9787 44.6398 13.616C44.4478 12.912 44.1918 12.368 43.8718 11.984C43.5518 11.6 43.0611 11.408 42.3998 11.408C41.9518 11.408 41.5358 11.5147 41.1518 11.728C40.7678 11.9413 40.4371 12.24 40.1598 12.624C39.7544 13.264 39.4878 14.0427 39.3598 14.96C39.2318 16.1333 39.1358 17.0613 39.0718 17.744C39.0291 18.4053 39.0078 19.1733 39.0078 20.048C39.0078 20.6667 38.9011 21.168 38.6878 21.552C38.4958 21.936 38.1224 22.128 37.5677 22.128C37.1624 22.128 36.7358 22.0213 36.2878 21.808C35.8611 21.5733 35.6478 21.264 35.6478 20.88C35.6478 20.4747 35.6904 20.0693 35.7758 19.664C35.9678 18.448 36.0638 16.3787 36.0638 13.456C36.0638 12.9867 35.9571 12.528 35.7438 12.08C35.5518 11.6107 35.3064 11.248 35.0078 10.992ZM60.4698 14.672C60.4698 13.3707 60.7578 12.2933 61.3338 11.44C61.9098 10.5653 62.7098 9.744 63.7338 8.976C64.0324 8.76267 64.5338 8.58133 65.2378 8.432C65.9418 8.26133 66.5604 8.176 67.0938 8.176C67.7338 8.176 68.4058 8.31467 69.1098 8.592C69.8351 8.848 70.4218 9.14667 70.8698 9.488C71.6591 10.064 72.2031 10.736 72.5018 11.504C72.8004 12.2507 72.9498 13.1467 72.9498 14.192C72.9498 14.64 72.6938 15.0773 72.1818 15.504C71.6911 15.9093 71.1578 16.112 70.5818 16.112L69.3658 16.08C68.7471 16.08 67.8618 16.1013 66.7098 16.144L66.0378 16.176C65.5684 16.2187 65.2164 16.24 64.9818 16.24C64.6404 16.24 64.1711 16.1973 63.5738 16.112C63.6591 17.1147 64.0324 17.904 64.6938 18.48C65.3551 19.0347 66.0698 19.312 66.8378 19.312C68.1818 19.312 69.1204 19.0453 69.6538 18.512C70.1018 18.192 70.4004 17.9893 70.5498 17.904C70.6991 17.8187 70.9338 17.776 71.2538 17.776C71.5951 17.776 71.8938 17.936 72.1498 18.256C72.4058 18.576 72.5338 18.896 72.5338 19.216C72.5338 19.5787 72.3098 19.952 71.8618 20.336C71.4351 20.6987 70.8484 21.0827 70.1018 21.488C69.6964 21.6587 69.1418 21.808 68.4378 21.936C67.7338 22.064 67.1471 22.128 66.6778 22.128C65.9311 22.128 65.0991 21.9147 64.1818 21.488C63.2644 21.04 62.5818 20.5493 62.1338 20.016C61.6858 19.4827 61.2911 18.7253 60.9498 17.744C60.6298 16.7627 60.4698 15.7387 60.4698 14.672ZM66.8378 13.808C68.3524 13.808 69.4618 13.7547 70.1658 13.648C70.1231 13.0293 69.9311 12.528 69.5898 12.144C69.2484 11.7387 68.7791 11.3973 68.1818 11.12C67.9898 11.0347 67.8191 10.9707 67.6698 10.928C67.5204 10.8853 67.3498 10.864 67.1578 10.864C66.1764 10.864 65.3444 11.1307 64.6618 11.664C64.0004 12.1973 63.6058 12.88 63.4778 13.712C64.5444 13.776 65.6644 13.808 66.8378 13.808ZM75.7213 14.768C75.7213 14 75.8599 13.2853 76.1373 12.624C76.4146 11.9413 76.8199 11.2373 77.3533 10.512C77.8866 9.78667 78.6226 9.22133 79.5613 8.816C80.4999 8.38933 81.5239 8.176 82.6333 8.176C83.4866 8.176 84.3079 8.35733 85.0973 8.72C85.9079 9.06133 86.6333 9.488 87.2733 10C87.3586 10.1493 87.5079 10.4267 87.7213 10.832C87.9346 11.216 88.0839 11.568 88.1693 11.888C88.2759 12.208 88.3293 12.5387 88.3293 12.88C88.3293 14.3093 87.8066 15.2693 86.7613 15.76C85.7159 16.2293 84.3933 16.464 82.7933 16.464C81.1933 16.464 79.8919 16.3573 78.8893 16.144C78.9319 16.5493 79.0386 16.9547 79.2093 17.36C79.3799 17.7653 79.5826 18.0747 79.8173 18.288C80.2439 18.6933 80.6599 18.96 81.0653 19.088C81.4919 19.1947 82.0573 19.248 82.7613 19.248C83.8279 19.248 84.6599 19.0453 85.2573 18.64C85.8119 18.2773 86.2386 18.096 86.5373 18.096C86.9426 18.096 87.2519 18.224 87.4653 18.48C87.6786 18.7147 87.7853 19.024 87.7853 19.408C87.7853 20.2187 87.2626 20.88 86.2173 21.392C85.1933 21.904 84.0306 22.16 82.7292 22.16C81.7053 22.16 80.6919 21.9787 79.6893 21.616C78.6866 21.2533 77.8866 20.7413 77.2893 20.08C76.8839 19.3973 76.5213 18.5653 76.2013 17.584C75.8813 16.6027 75.7213 15.664 75.7213 14.768ZM82.7613 10.8C82.2919 10.8 81.8013 10.8853 81.2893 11.056C80.7986 11.2053 80.4146 11.44 80.1373 11.76C79.7959 12.1227 79.5399 12.4533 79.3693 12.752C79.2199 13.0507 79.1239 13.424 79.0813 13.872C79.3159 13.872 79.5399 13.8827 79.7533 13.904C79.9666 13.9253 80.1693 13.9467 80.3613 13.968C81.2999 14.0533 82.0039 14.096 82.4733 14.096C83.4119 14.096 84.1266 13.9573 84.6173 13.68C85.1293 13.4027 85.3853 13.0293 85.3853 12.56C85.3853 12.112 85.0973 11.7067 84.5213 11.344C83.9666 10.9813 83.3799 10.8 82.7613 10.8Z"/>
</mask>
<path d="M13.464 1.968C13.464 2.18133 13.4107 2.768 13.304 3.728C13.0693 6.07467 12.952 8.45333 12.952 10.864C12.952 12.976 12.984 14.5867 13.048 15.696C13.112 16.8053 13.272 17.6587 13.528 18.256C13.784 18.832 14.1787 19.12 14.712 19.12C15.736 19.12 16.248 19.4613 16.248 20.144C16.248 20.592 16.024 20.976 15.576 21.296C15.128 21.5947 14.6373 21.744 14.104 21.744C13.464 21.744 12.8667 21.5947 12.312 21.296C11.7573 20.9973 11.32 20.5387 11 19.92C10.552 20.5813 9.90133 21.1147 9.048 21.52C8.216 21.904 7.40533 22.096 6.616 22.096C5.4 22.096 4.32267 21.84 3.384 21.328C2.44533 20.816 1.72 20.1227 1.208 19.248C0.696 18.352 0.44 17.3707 0.44 16.304C0.44 15.28 0.557333 14.2987 0.792 13.36C1.048 12.4 1.38933 11.6107 1.816 10.992C2.392 10.1813 3.16 9.54133 4.12 9.072C5.10133 8.58133 6.06133 8.336 7 8.336C7.576 8.336 8.12 8.45333 8.632 8.688C9.144 8.90133 9.592 9.168 9.976 9.488C9.976 8.05867 9.96533 7.16267 9.944 6.8V6.128C9.944 4.144 10.072 2.69333 10.328 1.776C10.5627 0.879999 11.128 0.431999 12.024 0.431999C12.5147 0.431999 12.8773 0.538666 13.112 0.751999C13.3467 0.965332 13.464 1.37067 13.464 1.968ZM3.608 16.24C3.608 17.2213 3.88533 18.0107 4.44 18.608C5.016 19.2053 5.69867 19.504 6.488 19.504C7.61867 19.504 8.45067 19.152 8.984 18.448C9.53867 17.744 9.816 16.8373 9.816 15.728L9.784 12.56C8.952 11.6427 8.088 11.184 7.192 11.184C6.57333 11.184 5.98667 11.344 5.432 11.664C4.89867 11.9627 4.472 12.4213 4.152 13.04C3.78933 13.744 3.608 14.8107 3.608 16.24ZM32.9123 20.464C32.9123 20.9333 32.6563 21.328 32.1443 21.648C31.6536 21.968 31.1949 22.128 30.7683 22.128C29.9576 22.128 29.3069 22.032 28.8163 21.84C28.3469 21.6267 27.9096 21.2427 27.5043 20.688C26.9496 21.1787 26.1923 21.552 25.2323 21.808C24.2723 22.0427 23.3869 22.16 22.5763 22.16C21.2536 22.16 20.1656 21.808 19.3123 21.104C18.4589 20.3787 18.0323 19.3227 18.0323 17.936C18.0323 17.3387 18.1923 16.7947 18.5123 16.304C18.8323 15.792 19.2696 15.344 19.8243 14.96C20.4429 14.5547 21.1469 14.2453 21.9363 14.032C22.7256 13.7973 23.5469 13.68 24.4003 13.68C24.8483 13.68 25.3816 13.7653 26.0003 13.936C26.6189 14.1067 27.0989 14.288 27.4403 14.48V13.968C27.4403 12.816 27.1629 12.0267 26.6083 11.6C26.0536 11.152 25.1576 10.928 23.9203 10.928C23.5576 10.928 23.1949 11.0027 22.8323 11.152C22.4909 11.3013 22.0963 11.504 21.6483 11.76C21.0509 12.08 20.4856 12.24 19.9523 12.24C19.7603 12.24 19.5789 12.112 19.4083 11.856C19.2376 11.5787 19.1523 11.3333 19.1523 11.12C19.1523 10.5013 19.4403 9.968 20.0163 9.52C20.6136 9.072 21.3176 8.74133 22.1283 8.528C22.9389 8.29333 23.6643 8.176 24.3043 8.176C24.9443 8.176 25.6803 8.304 26.5123 8.56C27.3443 8.79467 28.0269 9.12533 28.5603 9.552C29.2003 10.1067 29.6909 10.7573 30.0323 11.504C30.3949 12.2293 30.5763 13.0293 30.5763 13.904C30.5763 14.1813 30.5549 14.5973 30.5123 15.152C30.4696 15.7493 30.4483 16.2613 30.4483 16.688C30.4483 16.88 30.4269 17.168 30.3843 17.552C30.3416 18.0213 30.3203 18.3947 30.3203 18.672C30.3203 18.928 30.4163 19.152 30.6083 19.344C30.8003 19.5147 31.0243 19.6 31.2803 19.6L32.1763 19.568C32.4109 19.568 32.5923 19.6533 32.7203 19.824C32.8483 19.9947 32.9123 20.208 32.9123 20.464ZM22.6083 19.632C23.5256 19.632 24.2936 19.536 24.9123 19.344C25.5309 19.152 26.2776 18.8 27.1523 18.288C27.2376 17.9253 27.2909 17.4453 27.3123 16.848C26.1389 16.2933 25.1683 16.016 24.4003 16.016C23.5256 16.016 22.7469 16.176 22.0643 16.496C21.3816 16.816 21.0403 17.3813 21.0403 18.192C21.0403 18.5973 21.2109 18.9387 21.5523 19.216C21.8936 19.4933 22.2456 19.632 22.6083 19.632ZM35.0078 10.992C34.4744 10.544 34.2078 10.0213 34.2078 9.424C34.2078 9.12533 34.3571 8.85867 34.6558 8.624C34.9544 8.368 35.3171 8.24 35.7438 8.24C36.5118 8.24 37.1411 8.44267 37.6318 8.848C38.1224 9.25333 38.5491 9.84 38.9118 10.608C39.3598 9.776 39.9251 9.168 40.6078 8.784C41.3118 8.37867 42.1971 8.176 43.2638 8.176C43.9038 8.176 44.4158 8.26133 44.7998 8.432C45.2051 8.58133 45.5358 8.80533 45.7918 9.104C46.0478 9.38133 46.3678 9.808 46.7518 10.384C47.3064 9.70133 47.9998 9.168 48.8318 8.784C49.6851 8.4 50.5598 8.208 51.4558 8.208C52.5011 8.208 53.4504 8.64533 54.3038 9.52C55.1784 10.3947 55.7651 11.3867 56.0638 12.496C56.1704 12.9653 56.2451 14.0747 56.2878 15.824L56.4158 17.68C56.5224 18.8107 56.8851 19.4827 57.5038 19.696C57.8024 19.7813 58.0478 19.888 58.2398 20.016C58.4531 20.1227 58.5598 20.24 58.5598 20.368C58.6024 20.88 58.4851 21.2533 58.2078 21.488C58.0158 21.616 57.7491 21.7547 57.4078 21.904C57.0664 22.0533 56.7998 22.128 56.6078 22.128C55.4558 22.128 54.6344 21.712 54.1438 20.88C53.8238 20.3253 53.6211 19.696 53.5358 18.992C53.4504 18.2667 53.4078 17.2853 53.4078 16.048C53.4078 14.7253 53.2478 13.5947 52.9278 12.656C52.6078 11.696 51.8824 11.216 50.7518 11.216C50.3464 11.216 49.9411 11.344 49.5358 11.6C49.1518 11.8347 48.8744 12.1333 48.7038 12.496C48.4051 13.072 48.2024 13.7013 48.0958 14.384C47.9891 15.0453 47.9358 15.8133 47.9358 16.688C47.9358 17.2427 47.9678 17.808 48.0318 18.384C48.0318 18.5547 48.0424 18.832 48.0638 19.216C48.1064 19.5787 48.1278 19.9093 48.1278 20.208C48.1278 20.7413 48.0211 21.2 47.8078 21.584C47.6158 21.9467 47.2744 22.128 46.7838 22.128C45.6104 22.128 44.9918 21.5093 44.9278 20.272C44.9278 19.3973 44.9384 18.928 44.9598 18.864V17.488C44.9598 16.72 44.9278 15.9733 44.8638 15.248C44.7998 14.5227 44.7251 13.9787 44.6398 13.616C44.4478 12.912 44.1918 12.368 43.8718 11.984C43.5518 11.6 43.0611 11.408 42.3998 11.408C41.9518 11.408 41.5358 11.5147 41.1518 11.728C40.7678 11.9413 40.4371 12.24 40.1598 12.624C39.7544 13.264 39.4878 14.0427 39.3598 14.96C39.2318 16.1333 39.1358 17.0613 39.0718 17.744C39.0291 18.4053 39.0078 19.1733 39.0078 20.048C39.0078 20.6667 38.9011 21.168 38.6878 21.552C38.4958 21.936 38.1224 22.128 37.5677 22.128C37.1624 22.128 36.7358 22.0213 36.2878 21.808C35.8611 21.5733 35.6478 21.264 35.6478 20.88C35.6478 20.4747 35.6904 20.0693 35.7758 19.664C35.9678 18.448 36.0638 16.3787 36.0638 13.456C36.0638 12.9867 35.9571 12.528 35.7438 12.08C35.5518 11.6107 35.3064 11.248 35.0078 10.992ZM60.4698 14.672C60.4698 13.3707 60.7578 12.2933 61.3338 11.44C61.9098 10.5653 62.7098 9.744 63.7338 8.976C64.0324 8.76267 64.5338 8.58133 65.2378 8.432C65.9418 8.26133 66.5604 8.176 67.0938 8.176C67.7338 8.176 68.4058 8.31467 69.1098 8.592C69.8351 8.848 70.4218 9.14667 70.8698 9.488C71.6591 10.064 72.2031 10.736 72.5018 11.504C72.8004 12.2507 72.9498 13.1467 72.9498 14.192C72.9498 14.64 72.6938 15.0773 72.1818 15.504C71.6911 15.9093 71.1578 16.112 70.5818 16.112L69.3658 16.08C68.7471 16.08 67.8618 16.1013 66.7098 16.144L66.0378 16.176C65.5684 16.2187 65.2164 16.24 64.9818 16.24C64.6404 16.24 64.1711 16.1973 63.5738 16.112C63.6591 17.1147 64.0324 17.904 64.6938 18.48C65.3551 19.0347 66.0698 19.312 66.8378 19.312C68.1818 19.312 69.1204 19.0453 69.6538 18.512C70.1018 18.192 70.4004 17.9893 70.5498 17.904C70.6991 17.8187 70.9338 17.776 71.2538 17.776C71.5951 17.776 71.8938 17.936 72.1498 18.256C72.4058 18.576 72.5338 18.896 72.5338 19.216C72.5338 19.5787 72.3098 19.952 71.8618 20.336C71.4351 20.6987 70.8484 21.0827 70.1018 21.488C69.6964 21.6587 69.1418 21.808 68.4378 21.936C67.7338 22.064 67.1471 22.128 66.6778 22.128C65.9311 22.128 65.0991 21.9147 64.1818 21.488C63.2644 21.04 62.5818 20.5493 62.1338 20.016C61.6858 19.4827 61.2911 18.7253 60.9498 17.744C60.6298 16.7627 60.4698 15.7387 60.4698 14.672ZM66.8378 13.808C68.3524 13.808 69.4618 13.7547 70.1658 13.648C70.1231 13.0293 69.9311 12.528 69.5898 12.144C69.2484 11.7387 68.7791 11.3973 68.1818 11.12C67.9898 11.0347 67.8191 10.9707 67.6698 10.928C67.5204 10.8853 67.3498 10.864 67.1578 10.864C66.1764 10.864 65.3444 11.1307 64.6618 11.664C64.0004 12.1973 63.6058 12.88 63.4778 13.712C64.5444 13.776 65.6644 13.808 66.8378 13.808ZM75.7213 14.768C75.7213 14 75.8599 13.2853 76.1373 12.624C76.4146 11.9413 76.8199 11.2373 77.3533 10.512C77.8866 9.78667 78.6226 9.22133 79.5613 8.816C80.4999 8.38933 81.5239 8.176 82.6333 8.176C83.4866 8.176 84.3079 8.35733 85.0973 8.72C85.9079 9.06133 86.6333 9.488 87.2733 10C87.3586 10.1493 87.5079 10.4267 87.7213 10.832C87.9346 11.216 88.0839 11.568 88.1693 11.888C88.2759 12.208 88.3293 12.5387 88.3293 12.88C88.3293 14.3093 87.8066 15.2693 86.7613 15.76C85.7159 16.2293 84.3933 16.464 82.7933 16.464C81.1933 16.464 79.8919 16.3573 78.8893 16.144C78.9319 16.5493 79.0386 16.9547 79.2093 17.36C79.3799 17.7653 79.5826 18.0747 79.8173 18.288C80.2439 18.6933 80.6599 18.96 81.0653 19.088C81.4919 19.1947 82.0573 19.248 82.7613 19.248C83.8279 19.248 84.6599 19.0453 85.2573 18.64C85.8119 18.2773 86.2386 18.096 86.5373 18.096C86.9426 18.096 87.2519 18.224 87.4653 18.48C87.6786 18.7147 87.7853 19.024 87.7853 19.408C87.7853 20.2187 87.2626 20.88 86.2173 21.392C85.1933 21.904 84.0306 22.16 82.7292 22.16C81.7053 22.16 80.6919 21.9787 79.6893 21.616C78.6866 21.2533 77.8866 20.7413 77.2893 20.08C76.8839 19.3973 76.5213 18.5653 76.2013 17.584C75.8813 16.6027 75.7213 15.664 75.7213 14.768ZM82.7613 10.8C82.2919 10.8 81.8013 10.8853 81.2893 11.056C80.7986 11.2053 80.4146 11.44 80.1373 11.76C79.7959 12.1227 79.5399 12.4533 79.3693 12.752C79.2199 13.0507 79.1239 13.424 79.0813 13.872C79.3159 13.872 79.5399 13.8827 79.7533 13.904C79.9666 13.9253 80.1693 13.9467 80.3613 13.968C81.2999 14.0533 82.0039 14.096 82.4733 14.096C83.4119 14.096 84.1266 13.9573 84.6173 13.68C85.1293 13.4027 85.3853 13.0293 85.3853 12.56C85.3853 12.112 85.0973 11.7067 84.5213 11.344C83.9666 10.9813 83.3799 10.8 82.7613 10.8Z" fill="#22372B"/>
<path d="M13.304 3.728L12.3101 3.61756L12.309 3.62849L13.304 3.728ZM13.048 15.696L12.0497 15.7536L12.0497 15.7536L13.048 15.696ZM13.528 18.256L12.6088 18.65L12.6142 18.6621L13.528 18.256ZM15.576 21.296L16.1307 22.1281L16.1441 22.1191L16.1572 22.1097L15.576 21.296ZM12.312 21.296L11.8379 22.1765L11.8379 22.1765L12.312 21.296ZM11 19.92L11.8882 19.4606L11.1155 17.9666L10.1721 19.3592L11 19.92ZM9.048 21.52L9.46708 22.428L9.47706 22.4233L9.048 21.52ZM3.384 21.328L3.86285 20.4501L3.86285 20.4501L3.384 21.328ZM1.208 19.248L0.33971 19.7442L0.344986 19.7532L1.208 19.248ZM0.792 13.36L-0.174235 13.1023L-0.176248 13.1099L-0.178142 13.1175L0.792 13.36ZM1.816 10.992L1.00074 10.4127L0.992788 10.4243L1.816 10.992ZM4.12 9.072L4.55923 9.97042L4.56721 9.96643L4.12 9.072ZM8.632 8.688L8.21535 9.59706L8.23124 9.60435L8.24739 9.61108L8.632 8.688ZM9.976 9.488L9.33582 10.2562L10.976 11.623V9.488H9.976ZM9.944 6.8H8.944V6.82939L8.94573 6.85872L9.944 6.8ZM10.328 1.776L11.2912 2.0448L11.2933 2.0371L11.2954 2.02936L10.328 1.776ZM4.44 18.608L3.70721 19.2885L3.71362 19.2954L3.72016 19.3021L4.44 18.608ZM8.984 18.448L8.19851 17.8291L8.19264 17.8366L8.18691 17.8441L8.984 18.448ZM9.816 15.728L10.8161 15.728L10.8159 15.7179L9.816 15.728ZM9.784 12.56L10.7839 12.5499L10.7801 12.1698L10.5247 11.8882L9.784 12.56ZM5.432 11.664L5.92064 12.5366L5.93172 12.5302L5.432 11.664ZM4.152 13.04L3.26378 12.5806L3.26303 12.582L4.152 13.04ZM12.464 1.968C12.464 2.11231 12.4196 2.6324 12.3101 3.61757L14.2979 3.83843C14.4018 2.9036 14.464 2.25035 14.464 1.968H12.464ZM12.309 3.62849C12.0709 6.00895 11.952 8.42084 11.952 10.864H13.952C13.952 8.48583 14.0677 6.14038 14.299 3.8275L12.309 3.62849ZM11.952 10.864C11.952 12.9814 11.984 14.615 12.0497 15.7536L14.0463 15.6384C13.984 14.5583 13.952 12.9706 13.952 10.864H11.952ZM12.0497 15.7536C12.1163 16.9086 12.2859 17.8963 12.6089 18.6499L14.4471 17.8621C14.2581 17.421 14.1077 16.702 14.0463 15.6384L12.0497 15.7536ZM12.6142 18.6621C12.7931 19.0647 13.0525 19.4388 13.4265 19.7118C13.8109 19.9922 14.2539 20.12 14.712 20.12V18.12C14.6368 18.12 14.6158 18.1038 14.6055 18.0962C14.5849 18.0812 14.5189 18.0233 14.4418 17.8499L12.6142 18.6621ZM14.712 20.12C14.9156 20.12 15.0639 20.1373 15.1671 20.1602C15.2176 20.1714 15.2532 20.1831 15.2766 20.1925C15.2882 20.1971 15.2964 20.201 15.3017 20.2038C15.307 20.2065 15.3093 20.2081 15.3093 20.2081C15.3037 20.2043 15.2772 20.1825 15.2576 20.1432C15.24 20.1081 15.248 20.0989 15.248 20.144H17.248C17.248 19.5114 16.9869 18.9228 16.4187 18.5439C15.9221 18.2129 15.3035 18.12 14.712 18.12V20.12ZM15.248 20.144C15.248 20.194 15.2477 20.3016 14.9948 20.4823L16.1572 22.1097C16.8003 21.6504 17.248 20.99 17.248 20.144H15.248ZM15.0213 20.4639C14.7359 20.6542 14.4379 20.744 14.104 20.744V22.744C14.8368 22.744 15.5201 22.5351 16.1307 22.1281L15.0213 20.4639ZM14.104 20.744C13.6267 20.744 13.1927 20.6344 12.7861 20.4155L11.8379 22.1765C12.5407 22.5549 13.3013 22.744 14.104 22.744V20.744ZM12.7861 20.4155C12.4273 20.2223 12.1259 19.9201 11.8882 19.4606L10.1118 20.3794C10.5141 21.1572 11.0874 21.7723 11.8379 22.1765L12.7861 20.4155ZM10.1721 19.3592C9.84104 19.8478 9.34081 20.2738 8.61894 20.6167L9.47706 22.4233C10.4619 21.9555 11.263 21.3148 11.8279 20.4808L10.1721 19.3592ZM8.62894 20.612C7.9073 20.9451 7.23914 21.096 6.616 21.096V23.096C7.57153 23.096 8.5247 22.8629 9.46706 22.428L8.62894 20.612ZM6.616 21.096C5.54406 21.096 4.63548 20.8715 3.86285 20.4501L2.90515 22.2059C4.00985 22.8085 5.25594 23.096 6.616 23.096V21.096ZM3.86285 20.4501C3.07458 20.0201 2.48608 19.4519 2.07101 18.7428L0.344986 19.7532C0.953919 20.7934 1.81609 21.6119 2.90515 22.2059L3.86285 20.4501ZM2.07624 18.7519C1.65357 18.0122 1.44 17.2027 1.44 16.304H-0.56C-0.56 17.5386 -0.261565 18.6918 0.339757 19.7441L2.07624 18.7519ZM1.44 16.304C1.44 15.357 1.54843 14.4574 1.76214 13.6025L-0.178142 13.1175C-0.43376 14.1399 -0.56 15.203 -0.56 16.304H1.44ZM1.75824 13.6177C1.99365 12.7349 2.29482 12.0591 2.63921 11.5597L0.992788 10.4243C0.483845 11.1622 0.102352 12.0651 -0.174235 13.1023L1.75824 13.6177ZM2.63118 11.5712C3.10332 10.9067 3.73771 10.372 4.55921 9.97038L3.68079 8.17362C2.58229 8.71066 1.68068 9.45594 1.00082 10.4128L2.63118 11.5712ZM4.56721 9.96643C5.43309 9.53349 6.24077 9.336 7 9.336V7.336C5.88189 7.336 4.76958 7.62917 3.67279 8.17757L4.56721 9.96643ZM7 9.336C7.43555 9.336 7.8371 9.4237 8.21535 9.59706L9.04866 7.77893C8.4029 7.48297 7.71645 7.336 7 7.336V9.336ZM8.24739 9.61108C8.67695 9.79006 9.03669 10.007 9.33582 10.2562L10.6162 8.71978C10.1473 8.32905 9.61105 8.0126 9.01662 7.76492L8.24739 9.61108ZM10.976 9.488C10.976 8.06932 10.9657 7.13985 10.9423 6.74128L8.94573 6.85872C8.96495 7.18549 8.976 8.04802 8.976 9.488H10.976ZM10.944 6.8V6.128H8.944V6.8H10.944ZM10.944 6.128C10.944 4.15884 11.0739 2.82327 11.2912 2.0448L9.3648 1.5072C9.07005 2.56339 8.944 4.12916 8.944 6.128H10.944ZM11.2954 2.02936C11.3735 1.73108 11.4791 1.60717 11.5491 1.55175C11.6157 1.49896 11.7456 1.432 12.024 1.432V-0.568001C11.4064 -0.568001 10.8056 -0.410966 10.3069 -0.0157468C9.81153 0.376825 9.51717 0.924917 9.36063 1.52264L11.2954 2.02936ZM12.024 1.432C12.3969 1.432 12.4669 1.51699 12.4393 1.49194L13.7847 0.0120583C13.2878 -0.439662 12.6324 -0.568001 12.024 -0.568001V1.432ZM12.4393 1.49194C12.3817 1.43952 12.3916 1.41188 12.4154 1.49406C12.4396 1.57751 12.464 1.72774 12.464 1.968H14.464C14.464 1.31461 14.3506 0.52655 13.7847 0.0120583L12.4393 1.49194ZM2.608 16.24C2.608 17.4193 2.94704 18.4698 3.70721 19.2885L5.17279 17.9275C4.82363 17.5515 4.608 17.0233 4.608 16.24H2.608ZM3.72016 19.3021C4.47381 20.0837 5.41195 20.504 6.488 20.504V18.504C5.98538 18.504 5.55819 18.327 5.15984 17.9139L3.72016 19.3021ZM6.488 20.504C7.8354 20.504 9.00728 20.0733 9.78109 19.0519L8.18691 17.8441C7.89406 18.2307 7.40193 18.504 6.488 18.504V20.504ZM9.76949 19.0669C10.4935 18.1479 10.816 17.0072 10.816 15.728H8.816C8.816 16.6675 8.58379 17.3401 8.19851 17.8291L9.76949 19.0669ZM10.8159 15.7179L10.7839 12.5499L8.78405 12.5701L8.81605 15.7381L10.8159 15.7179ZM10.5247 11.8882C9.5782 10.8446 8.46527 10.184 7.192 10.184V12.184C7.71073 12.184 8.3258 12.4407 9.04328 13.2318L10.5247 11.8882ZM7.192 10.184C6.39159 10.184 5.63333 10.3934 4.93228 10.7978L5.93172 12.5302C6.34 12.2946 6.75507 12.184 7.192 12.184V10.184ZM4.9434 10.7915C4.21633 11.1987 3.66078 11.813 3.26378 12.5806L5.04022 13.4994C5.28322 13.0296 5.58101 12.7267 5.9206 12.5365L4.9434 10.7915ZM3.26303 12.582C2.79004 13.5002 2.608 14.7602 2.608 16.24H4.608C4.608 14.8611 4.78862 13.9878 5.04097 13.498L3.26303 12.582ZM32.1443 21.648L31.6143 20.8L31.6061 20.8051L31.598 20.8104L32.1443 21.648ZM28.8163 21.84L28.4024 22.7504L28.4269 22.7615L28.4519 22.7712L28.8163 21.84ZM27.5043 20.688L28.3116 20.098L27.6639 19.2116L26.8417 19.939L27.5043 20.688ZM25.2323 21.808L25.4697 22.7794L25.4798 22.7769L25.4899 22.7742L25.2323 21.808ZM19.3123 21.104L18.6646 21.8659L18.6702 21.8707L18.6759 21.8754L19.3123 21.104ZM18.5123 16.304L19.3499 16.8503L19.3551 16.8422L19.3602 16.834L18.5123 16.304ZM19.8243 14.96L19.2762 14.1235L19.2655 14.1305L19.255 14.1378L19.8243 14.96ZM21.9363 14.032L22.1972 14.9974L22.2092 14.9941L22.2212 14.9905L21.9363 14.032ZM26.0003 13.936L25.7343 14.9L25.7343 14.9L26.0003 13.936ZM27.4403 14.48L26.95 15.3516L28.4403 16.1898V14.48H27.4403ZM26.6083 11.6L25.9799 12.3779L25.9891 12.3854L25.9985 12.3926L26.6083 11.6ZM22.8323 11.152L22.4515 10.2273L22.4414 10.2315L22.4314 10.2358L22.8323 11.152ZM21.6483 11.76L22.1205 12.6415L22.1325 12.635L22.1444 12.6282L21.6483 11.76ZM19.4083 11.856L18.5566 12.3801L18.5661 12.3956L18.5762 12.4107L19.4083 11.856ZM20.0163 9.52L19.4163 8.72L19.4092 8.72526L19.4023 8.73065L20.0163 9.52ZM22.1283 8.528L22.3827 9.49507L22.3946 9.49196L22.4063 9.48856L22.1283 8.528ZM26.5123 8.56L26.2182 9.51578L26.2294 9.51925L26.2408 9.52245L26.5123 8.56ZM28.5603 9.552L29.2152 8.79631L29.2003 8.78342L29.1849 8.77113L28.5603 9.552ZM30.0323 11.504L29.1228 11.9198L29.13 11.9356L29.1378 11.9512L30.0323 11.504ZM30.5123 15.152L29.5152 15.0753L29.5148 15.0808L30.5123 15.152ZM30.3843 17.552L29.3904 17.4416L29.3893 17.4515L29.3884 17.4615L30.3843 17.552ZM30.6083 19.344L29.9011 20.0511L29.9219 20.0719L29.9439 20.0914L30.6083 19.344ZM31.2803 19.6V20.6H31.2981L31.3159 20.5994L31.2803 19.6ZM32.1763 19.568V18.568H32.1584L32.1406 18.5686L32.1763 19.568ZM32.7203 19.824L33.5203 19.224L33.5203 19.224L32.7203 19.824ZM24.9123 19.344L25.2086 20.2991L25.2086 20.2991L24.9123 19.344ZM27.1523 18.288L27.6574 19.151L28.0275 18.9344L28.1257 18.517L27.1523 18.288ZM27.3123 16.848L28.3116 16.8837L28.3351 16.2254L27.7396 15.9439L27.3123 16.848ZM22.0643 16.496L22.4887 17.4015L22.4887 17.4015L22.0643 16.496ZM21.5523 19.216L22.1828 18.4399L22.1828 18.4399L21.5523 19.216ZM31.9123 20.464C31.9123 20.505 31.9044 20.5321 31.8813 20.5678C31.852 20.6129 31.7802 20.6963 31.6143 20.8L32.6742 22.496C33.3835 22.0527 33.9123 21.3771 33.9123 20.464H31.9123ZM31.598 20.8104C31.2112 21.0627 30.9411 21.128 30.7683 21.128V23.128C31.4487 23.128 32.096 22.8733 32.6905 22.4856L31.598 20.8104ZM30.7683 21.128C30.0222 21.128 29.51 21.0376 29.1807 20.9088L28.4519 22.7712C29.1038 23.0264 29.8929 23.128 30.7683 23.128V21.128ZM29.2301 20.9296C28.9608 20.8073 28.6481 20.5584 28.3116 20.098L26.6969 21.278C27.1711 21.927 27.733 22.4461 28.4024 22.7504L29.2301 20.9296ZM26.8417 19.939C26.436 20.2978 25.8335 20.6127 24.9746 20.8418L25.4899 22.7742C26.551 22.4913 27.4631 22.0595 28.1668 21.437L26.8417 19.939ZM24.9948 20.8366C24.0962 21.0562 23.2917 21.16 22.5763 21.16V23.16C23.4821 23.16 24.4483 23.0291 25.4697 22.7794L24.9948 20.8366ZM22.5763 21.16C21.4385 21.16 20.5894 20.8613 19.9486 20.3326L18.6759 21.8754C19.7418 22.7547 21.0687 23.16 22.5763 23.16V21.16ZM19.9599 20.3421C19.3822 19.851 19.0323 19.1053 19.0323 17.936H17.0323C17.0323 19.54 17.5357 20.9063 18.6646 21.8659L19.9599 20.3421ZM19.0323 17.936C19.0323 17.5286 19.138 17.1751 19.3499 16.8503L17.6746 15.7577C17.2465 16.4142 17.0323 17.1487 17.0323 17.936H19.0323ZM19.3602 16.834C19.6001 16.4502 19.9375 16.0979 20.3935 15.7822L19.255 14.1378C18.6017 14.5901 18.0644 15.1338 17.6643 15.774L19.3602 16.834ZM20.3723 15.7965C20.8939 15.4547 21.4991 15.186 22.1972 14.9974L21.6753 13.0666C20.7948 13.3046 19.992 13.6546 19.2762 14.1235L20.3723 15.7965ZM22.2212 14.9905C22.9147 14.7844 23.6399 14.68 24.4003 14.68V12.68C23.4539 12.68 22.5364 12.8103 21.6513 13.0735L22.2212 14.9905ZM24.4003 14.68C24.7289 14.68 25.1683 14.7438 25.7343 14.9L26.2662 12.972C25.5949 12.7868 24.9676 12.68 24.4003 12.68V14.68ZM25.7343 14.9C26.3177 15.0609 26.7098 15.2165 26.95 15.3516L27.9305 13.6084C27.488 13.3595 26.9202 13.1524 26.2662 12.972L25.7343 14.9ZM28.4403 14.48V13.968H26.4403V14.48H28.4403ZM28.4403 13.968C28.4403 12.7046 28.1422 11.5184 27.218 10.8074L25.9985 12.3926C26.1836 12.535 26.4403 12.9274 26.4403 13.968H28.4403ZM27.2366 10.8221C26.4139 10.1576 25.2346 9.928 23.9203 9.928V11.928C25.0806 11.928 25.6932 12.1464 25.9799 12.3779L27.2366 10.8221ZM23.9203 9.928C23.4166 9.928 22.925 10.0323 22.4515 10.2273L23.213 12.0767C23.4648 11.973 23.6985 11.928 23.9203 11.928V9.928ZM22.4314 10.2358C22.0478 10.4037 21.6202 10.6243 21.1521 10.8918L22.1444 12.6282C22.5723 12.3837 22.934 12.199 23.2331 12.0682L22.4314 10.2358ZM21.176 10.8785C20.6855 11.1413 20.2822 11.24 19.9523 11.24V13.24C20.689 13.24 21.4163 13.0187 22.1205 12.6415L21.176 10.8785ZM19.9523 11.24C20.0937 11.24 20.1981 11.2911 20.2489 11.327C20.2895 11.3556 20.2819 11.3636 20.2403 11.3013L18.5762 12.4107C18.8173 12.7723 19.2614 13.24 19.9523 13.24V11.24ZM20.2599 11.3319C20.2034 11.2401 20.1745 11.1751 20.1607 11.1355C20.1471 11.0962 20.1523 11.0935 20.1523 11.12H18.1523C18.1523 11.5915 18.3361 12.0219 18.5566 12.3801L20.2599 11.3319ZM20.1523 11.12C20.1523 10.8672 20.2487 10.6061 20.6302 10.3094L19.4023 8.73065C18.6318 9.32992 18.1523 10.1355 18.1523 11.12H20.1523ZM20.6163 10.32C21.0984 9.95842 21.6817 9.67956 22.3827 9.49507L21.8738 7.56092C20.9535 7.8031 20.1288 8.18558 19.4163 8.72L20.6163 10.32ZM22.4063 9.48856C23.1535 9.27226 23.7828 9.176 24.3043 9.176V7.176C23.5457 7.176 22.7243 7.31441 21.8502 7.56743L22.4063 9.48856ZM24.3043 9.176C24.816 9.176 25.4496 9.2793 26.2182 9.51578L26.8063 7.60422C25.9109 7.32869 25.0725 7.176 24.3043 7.176V9.176ZM26.2408 9.52245C26.977 9.7301 27.5304 10.0087 27.9356 10.3329L29.1849 8.77113C28.5234 8.24192 27.7115 7.85923 26.7837 7.59755L26.2408 9.52245ZM27.9053 10.3077C28.4406 10.7716 28.8429 11.3075 29.1228 11.9198L30.9417 11.0882C30.539 10.2072 29.9599 9.44172 29.2152 8.79631L27.9053 10.3077ZM29.1378 11.9512C29.4257 12.527 29.5763 13.1721 29.5763 13.904H31.5763C31.5763 12.8865 31.3641 11.9317 30.9267 11.0568L29.1378 11.9512ZM29.5763 13.904C29.5763 14.1415 29.5574 14.5262 29.5152 15.0753L31.5093 15.2287C31.5524 14.6685 31.5763 14.2212 31.5763 13.904H29.5763ZM29.5148 15.0808C29.471 15.6932 29.4483 16.2302 29.4483 16.688H31.4483C31.4483 16.2924 31.4681 15.8055 31.5097 15.2232L29.5148 15.0808ZM29.4483 16.688C29.4483 16.8224 29.4322 17.0654 29.3904 17.4416L31.3781 17.6624C31.4217 17.2706 31.4483 16.9376 31.4483 16.688H29.4483ZM29.3884 17.4615C29.3446 17.9433 29.3203 18.3508 29.3203 18.672H31.3203C31.3203 18.4385 31.3386 18.0994 31.3801 17.6425L29.3884 17.4615ZM29.3203 18.672C29.3203 19.2106 29.5342 19.6842 29.9011 20.0511L31.3154 18.6369C31.3067 18.6282 31.3039 18.624 31.3044 18.6248C31.3051 18.6257 31.308 18.6303 31.3114 18.6381C31.3148 18.646 31.3173 18.6543 31.3188 18.6619C31.3203 18.6693 31.3203 18.6732 31.3203 18.672H29.3203ZM29.9439 20.0914C30.3182 20.4242 30.7784 20.6 31.2803 20.6V18.6C31.272 18.6 31.2687 18.5993 31.2693 18.5994C31.27 18.5996 31.2726 18.6001 31.2762 18.6015C31.2779 18.6021 31.2794 18.6028 31.2805 18.6034C31.2811 18.6037 31.2815 18.6039 31.2819 18.6041C31.282 18.6042 31.2821 18.6042 31.2822 18.6043C31.2823 18.6043 31.2823 18.6043 31.2823 18.6043C31.2823 18.6043 31.2823 18.6043 31.2822 18.6043C31.2821 18.6042 31.282 18.6041 31.2818 18.604C31.2814 18.6037 31.2808 18.6033 31.28 18.6027C31.2785 18.6015 31.276 18.5996 31.2726 18.5966L29.9439 20.0914ZM31.3159 20.5994L32.2119 20.5674L32.1406 18.5686L31.2446 18.6006L31.3159 20.5994ZM32.1763 20.568C32.1714 20.568 32.1259 20.5667 32.0625 20.5368C31.9959 20.5055 31.9477 20.4606 31.9203 20.424L33.5203 19.224C33.1826 18.7738 32.6893 18.568 32.1763 18.568V20.568ZM31.9203 20.424C31.916 20.4184 31.9125 20.4125 31.9098 20.4072C31.9072 20.402 31.9063 20.399 31.9064 20.3993C31.9066 20.4001 31.9123 20.4191 31.9123 20.464H33.9123C33.9123 20.0361 33.8025 19.6003 33.5203 19.224L31.9203 20.424ZM22.6083 20.632C23.5878 20.632 24.4633 20.5304 25.2086 20.2991L24.6159 18.3889C24.1239 18.5416 23.4633 18.632 22.6083 18.632V20.632ZM25.2086 20.2991C25.929 20.0755 26.7494 19.6825 27.6574 19.151L26.6471 17.425C25.8058 17.9175 25.1328 18.2285 24.6159 18.3889L25.2086 20.2991ZM28.1257 18.517C28.2321 18.0647 28.2892 17.5122 28.3116 16.8837L26.3129 16.8123C26.2927 17.3785 26.2431 17.786 26.1788 18.059L28.1257 18.517ZM27.7396 15.9439C26.5128 15.364 25.3845 15.016 24.4003 15.016V17.016C24.952 17.016 25.7651 17.2227 26.8849 17.7521L27.7396 15.9439ZM24.4003 15.016C23.4023 15.016 22.475 15.1991 21.6398 15.5905L22.4887 17.4015C23.0189 17.1529 23.6489 17.016 24.4003 17.016V15.016ZM21.6398 15.5905C21.1455 15.8223 20.7271 16.1679 20.4402 16.6431C20.156 17.1137 20.0403 17.6459 20.0403 18.192H22.0403C22.0403 17.9275 22.0951 17.7716 22.1523 17.6769C22.2067 17.5867 22.3003 17.4897 22.4887 17.4015L21.6398 15.5905ZM20.0403 18.192C20.0403 18.9265 20.3693 19.5433 20.9217 19.9921L22.1828 18.4399C22.0525 18.334 22.0403 18.2681 22.0403 18.192H20.0403ZM20.9217 19.9921C21.402 20.3824 21.97 20.632 22.6083 20.632V18.632C22.5212 18.632 22.3852 18.6043 22.1828 18.4399L20.9217 19.9921ZM35.0078 10.992L35.6586 10.2327L35.6509 10.2263L35.0078 10.992ZM34.6558 8.624L35.2736 9.41032L35.2903 9.39714L35.3065 9.38326L34.6558 8.624ZM37.6318 8.848L36.9949 9.61896L36.9949 9.61896L37.6318 8.848ZM38.9118 10.608L38.0075 11.035L38.8532 12.826L39.7922 11.0821L38.9118 10.608ZM40.6078 8.784L41.098 9.65562L41.1067 9.65062L40.6078 8.784ZM44.7998 8.432L44.3936 9.34581L44.4234 9.35906L44.454 9.37034L44.7998 8.432ZM45.7918 9.104L45.0325 9.75479L45.0445 9.76876L45.0569 9.78228L45.7918 9.104ZM46.7518 10.384L45.9197 10.9387L46.6723 12.0676L47.5279 11.0146L46.7518 10.384ZM48.8318 8.784L48.4214 7.87204L48.4127 7.87604L48.8318 8.784ZM54.3038 9.52L53.5879 10.2184L53.5966 10.2271L54.3038 9.52ZM56.0638 12.496L57.0389 12.2744L57.0345 12.2551L57.0294 12.236L56.0638 12.496ZM56.2878 15.824L55.288 15.8484L55.2886 15.8706L55.2901 15.8928L56.2878 15.824ZM56.4158 17.68L55.4181 17.7488L55.419 17.7614L55.4202 17.7739L56.4158 17.68ZM57.5038 19.696L57.1778 20.6414L57.2032 20.6501L57.229 20.6575L57.5038 19.696ZM58.2398 20.016L57.6851 20.8481L57.7369 20.8826L57.7925 20.9104L58.2398 20.016ZM58.5598 20.368H57.5598V20.4096L57.5632 20.451L58.5598 20.368ZM58.2078 21.488L58.7625 22.3201L58.81 22.2883L58.8537 22.2514L58.2078 21.488ZM57.4078 21.904L57.8086 22.8202L57.8086 22.8202L57.4078 21.904ZM54.1438 20.88L53.2775 21.3797L53.2824 21.388L54.1438 20.88ZM53.5358 18.992L52.5426 19.1088L52.543 19.1123L53.5358 18.992ZM52.9278 12.656L51.979 12.9722L51.9812 12.9787L52.9278 12.656ZM49.5358 11.6L50.0572 12.4533L50.0635 12.4494L50.0697 12.4455L49.5358 11.6ZM48.7038 12.496L49.5915 12.9563L49.6004 12.9392L49.6086 12.9218L48.7038 12.496ZM48.0958 14.384L49.083 14.5432L49.0838 14.5384L48.0958 14.384ZM48.0318 18.384H49.0318V18.3286L49.0256 18.2736L48.0318 18.384ZM48.0638 19.216L47.0653 19.2715L47.067 19.3022L47.0706 19.3328L48.0638 19.216ZM47.8078 21.584L46.9336 21.0984L46.9287 21.1072L46.924 21.1161L47.8078 21.584ZM44.9278 20.272H43.9278V20.2978L43.9291 20.3237L44.9278 20.272ZM44.9598 18.864L45.9084 19.1802L45.9598 19.0263V18.864H44.9598ZM44.8638 15.248L45.8599 15.1601L45.8599 15.1601L44.8638 15.248ZM44.6398 13.616L45.6132 13.387L45.6091 13.3698L45.6045 13.3529L44.6398 13.616ZM43.8718 11.984L44.64 11.3438L44.64 11.3438L43.8718 11.984ZM41.1518 11.728L41.6374 12.6022L41.6374 12.6022L41.1518 11.728ZM40.1598 12.624L39.3491 12.0385L39.3312 12.0632L39.3149 12.0889L40.1598 12.624ZM39.3598 14.96L38.3693 14.8218L38.3673 14.8367L38.3656 14.8516L39.3598 14.96ZM39.0718 17.744L38.0761 17.6507L38.0748 17.6651L38.0738 17.6796L39.0718 17.744ZM38.6878 21.552L37.8136 21.0664L37.803 21.0854L37.7933 21.1048L38.6878 21.552ZM36.2878 21.808L35.8058 22.6842L35.8314 22.6983L35.8578 22.7109L36.2878 21.808ZM35.7758 19.664L36.7543 19.87L36.7595 19.8451L36.7635 19.82L35.7758 19.664ZM35.7438 12.08L34.8182 12.4586L34.8288 12.4846L34.8409 12.5099L35.7438 12.08ZM35.6509 10.2263C35.3021 9.93323 35.2078 9.67542 35.2078 9.424H33.2078C33.2078 10.3672 33.6468 11.1548 34.3646 11.7577L35.6509 10.2263ZM35.2078 9.424C35.2078 9.43366 35.2064 9.44692 35.2026 9.46139C35.1988 9.47574 35.1942 9.48515 35.1923 9.4886C35.1889 9.49459 35.2036 9.46532 35.2736 9.41032L34.0379 7.83768C33.5697 8.2056 33.2078 8.73757 33.2078 9.424H35.2078ZM35.3065 9.38326C35.4081 9.29622 35.534 9.24 35.7438 9.24V7.24C35.1002 7.24 34.5008 7.43978 34.005 7.86474L35.3065 9.38326ZM35.7438 9.24C36.3292 9.24 36.7185 9.39064 36.9949 9.61896L38.2686 8.07704C37.5637 7.49469 36.6943 7.24 35.7438 7.24V9.24ZM36.9949 9.61896C37.341 9.90487 37.6876 10.3576 38.0075 11.035L39.816 10.181C39.4106 9.3224 38.9039 8.6018 38.2686 8.07704L36.9949 9.61896ZM39.7922 11.0821C40.1691 10.3822 40.6117 9.92912 41.098 9.65557L40.1175 7.91242C39.2385 8.40688 38.5504 9.16983 38.0313 10.1339L39.7922 11.0821ZM41.1067 9.65062C41.6186 9.35589 42.3189 9.176 43.2638 9.176V7.176C42.0752 7.176 41.0049 7.40145 40.1088 7.91738L41.1067 9.65062ZM43.2638 9.176C43.8299 9.176 44.1865 9.25378 44.3936 9.34581L45.2059 7.51819C44.645 7.26889 43.9776 7.176 43.2638 7.176V9.176ZM44.454 9.37034C44.7154 9.46661 44.8982 9.59812 45.0325 9.75479L46.551 8.45321C46.1733 8.01254 45.6948 7.69605 45.1455 7.49366L44.454 9.37034ZM45.0569 9.78228C45.2594 10.0016 45.5451 10.3768 45.9197 10.9387L47.5838 9.8293C47.1904 9.23924 46.8361 8.76108 46.5266 8.42572L45.0569 9.78228ZM47.5279 11.0146C47.9822 10.4554 48.5515 10.0147 49.2508 9.69196L48.4127 7.87604C47.448 8.32127 46.6306 8.94725 45.9756 9.75341L47.5279 11.0146ZM49.2421 9.69592C49.9723 9.36734 50.7075 9.208 51.4558 9.208V7.208C50.412 7.208 49.3979 7.43265 48.4214 7.87208L49.2421 9.69592ZM51.4558 9.208C52.186 9.208 52.8884 9.50125 53.588 10.2183L55.0195 8.82168C54.0125 7.78942 52.8162 7.208 51.4558 7.208V9.208ZM53.5966 10.2271C54.3573 10.9878 54.8485 11.8287 55.0981 12.756L57.0294 12.236C56.6817 10.9447 55.9995 9.80158 55.0109 8.81289L53.5966 10.2271ZM55.0886 12.7176C55.1685 13.0691 55.2446 14.0679 55.288 15.8484L57.2875 15.7996C57.2455 14.0814 57.1723 12.8615 57.0389 12.2744L55.0886 12.7176ZM55.2901 15.8928L55.4181 17.7488L57.4134 17.6112L57.2854 15.7552L55.2901 15.8928ZM55.4202 17.7739C55.5349 18.9897 55.9664 20.2237 57.1778 20.6414L57.8297 18.7506C57.7966 18.7392 57.7312 18.7116 57.6478 18.5571C57.5533 18.382 57.4577 18.0771 57.4113 17.5861L55.4202 17.7739ZM57.229 20.6575C57.4603 20.7236 57.6031 20.7934 57.6851 20.8481L58.7945 19.1839C58.4924 18.9826 58.1445 18.8391 57.7785 18.7345L57.229 20.6575ZM57.7925 20.9104C57.839 20.9336 57.8004 20.9233 57.7398 20.8567C57.6675 20.7772 57.5598 20.6085 57.5598 20.368H59.5598C59.5598 19.617 58.9439 19.25 58.687 19.1216L57.7925 20.9104ZM57.5632 20.451C57.577 20.6162 57.5595 20.7012 57.5498 20.7322C57.5433 20.7528 57.5448 20.739 57.5618 20.7246L58.8537 22.2514C59.4701 21.7298 59.6139 20.9763 59.5563 20.285L57.5632 20.451ZM57.6531 20.6559C57.5301 20.7379 57.323 20.8496 57.0069 20.9878L57.8086 22.8202C58.1752 22.6598 58.5014 22.4941 58.7625 22.3201L57.6531 20.6559ZM57.0069 20.9878C56.8653 21.0498 56.7584 21.0877 56.6821 21.109C56.6014 21.1316 56.5822 21.128 56.6078 21.128V23.128C57.0141 23.128 57.4375 22.9825 57.8086 22.8202L57.0069 20.9878ZM56.6078 21.128C55.7294 21.128 55.2786 20.8357 55.0051 20.372L53.2824 21.388C53.9902 22.5883 55.1821 23.128 56.6078 23.128V21.128ZM55.0099 20.3803C54.7641 19.9542 54.5994 19.4564 54.5285 18.8717L52.543 19.1123C52.6428 19.9356 52.8834 20.6965 53.2776 21.3797L55.0099 20.3803ZM54.5289 18.8752C54.4502 18.2061 54.4078 17.2691 54.4078 16.048H52.4078C52.4078 17.3016 52.4507 18.3273 52.5426 19.1088L54.5289 18.8752ZM54.4078 16.048C54.4078 14.6499 54.2393 13.404 53.8743 12.3333L51.9812 12.9787C52.2562 13.7853 52.4078 14.8008 52.4078 16.048H54.4078ZM53.8764 12.3398C53.6578 11.6839 53.2742 11.1249 52.6956 10.7421C52.1267 10.3656 51.4552 10.216 50.7518 10.216V12.216C51.179 12.216 51.4355 12.3064 51.5919 12.4099C51.7386 12.5071 51.8777 12.6681 51.9791 12.9722L53.8764 12.3398ZM50.7518 10.216C50.1252 10.216 49.5373 10.4163 49.0018 10.7545L50.0697 12.4455C50.3449 12.2717 50.5676 12.216 50.7518 12.216V10.216ZM49.0143 10.7467C48.4847 11.0704 48.0628 11.5094 47.7989 12.0702L49.6086 12.9218C49.686 12.7572 49.8189 12.5989 50.0572 12.4533L49.0143 10.7467ZM47.816 12.0357C47.4645 12.7136 47.23 13.4472 47.1077 14.2296L49.0838 14.5384C49.1748 13.9555 49.3457 13.4304 49.5915 12.9563L47.816 12.0357ZM47.1085 14.2248C46.9912 14.9519 46.9358 15.7752 46.9358 16.688H48.9358C48.9358 15.8515 48.9869 15.1388 49.083 14.5432L47.1085 14.2248ZM46.9358 16.688C46.9358 17.2812 46.97 17.8834 47.0379 18.4944L49.0256 18.2736C48.9655 17.7326 48.9358 17.2042 48.9358 16.688H46.9358ZM47.0318 18.384C47.0318 18.5847 47.0439 18.886 47.0653 19.2715L49.0622 19.1605C49.041 18.778 49.0318 18.5247 49.0318 18.384H47.0318ZM47.0706 19.3328C47.1097 19.6649 47.1278 19.9558 47.1278 20.208H49.1278C49.1278 19.8628 49.1032 19.4924 49.0569 19.0992L47.0706 19.3328ZM47.1278 20.208C47.1278 20.6076 47.0484 20.8916 46.9336 21.0984L48.6819 22.0696C48.9937 21.5084 49.1278 20.8751 49.1278 20.208H47.1278ZM46.924 21.1161C46.9176 21.1282 46.9159 21.1278 46.9217 21.1219C46.9278 21.1156 46.9347 21.1109 46.9386 21.1089C46.9462 21.1049 46.9085 21.128 46.7838 21.128V23.128C47.5577 23.128 48.2889 22.8123 48.6915 22.0519L46.924 21.1161ZM46.7838 21.128C46.369 21.128 46.2117 21.0217 46.1469 20.9569C46.0734 20.8834 45.9509 20.6943 45.9264 20.2203L43.9291 20.3237C43.9686 21.087 44.1874 21.8259 44.7326 22.3711C45.2865 22.925 46.0251 23.128 46.7838 23.128V21.128ZM45.9278 20.272C45.9278 19.837 45.9304 19.5099 45.9355 19.2867C45.9381 19.174 45.9411 19.0963 45.944 19.0479C45.9455 19.023 45.9464 19.0153 45.9459 19.0192C45.9457 19.0211 45.9443 19.0336 45.941 19.0526C45.9389 19.0647 45.9301 19.1152 45.9084 19.1802L44.0111 18.5478C43.9715 18.6666 43.9606 18.7764 43.9586 18.7948C43.9535 18.84 43.95 18.8864 43.9475 18.9281C43.9425 19.013 43.9388 19.1193 43.936 19.2413C43.9304 19.4874 43.9278 19.8323 43.9278 20.272H45.9278ZM45.9598 18.864V17.488H43.9598V18.864H45.9598ZM45.9598 17.488C45.9598 16.6922 45.9266 15.9162 45.8599 15.1601L43.8676 15.3359C43.9289 16.0305 43.9598 16.7478 43.9598 17.488H45.9598ZM45.8599 15.1601C45.7948 14.423 45.7154 13.8213 45.6132 13.387L43.6663 13.845C43.7348 14.136 43.8047 14.6223 43.8676 15.3359L45.8599 15.1601ZM45.6045 13.3529C45.3907 12.5691 45.0839 11.8766 44.64 11.3438L43.1035 12.6242C43.2996 12.8594 43.5048 13.2549 43.675 13.8791L45.6045 13.3529ZM44.64 11.3438C44.073 10.6634 43.2555 10.408 42.3998 10.408V12.408C42.8666 12.408 43.0305 12.5366 43.1035 12.6242L44.64 11.3438ZM42.3998 10.408C41.7853 10.408 41.2017 10.5563 40.6661 10.8538L41.6374 12.6022C41.8698 12.4731 42.1182 12.408 42.3998 12.408V10.408ZM40.6661 10.8538C40.1441 11.1439 39.7054 11.5451 39.3491 12.0385L40.9704 13.2095C41.1687 12.9349 41.3914 12.7388 41.6374 12.6022L40.6661 10.8538ZM39.3149 12.0889C38.8183 12.8731 38.5128 13.794 38.3693 14.8218L40.3502 15.0982C40.4627 14.2913 40.6905 13.6549 41.0046 13.1591L39.3149 12.0889ZM38.3656 14.8516C38.2374 16.0269 38.1408 16.9606 38.0761 17.6507L40.0674 17.8373C40.1307 17.162 40.2261 16.2398 40.3539 15.0684L38.3656 14.8516ZM38.0738 17.6796C38.0294 18.3679 38.0078 19.1582 38.0078 20.048H40.0078C40.0078 19.1885 40.0287 18.4428 40.0697 17.8084L38.0738 17.6796ZM38.0078 20.048C38.0078 20.5623 37.9175 20.8793 37.8136 21.0664L39.5619 22.0376C39.8846 21.4567 40.0078 20.771 40.0078 20.048H38.0078ZM37.7933 21.1048C37.789 21.1134 37.7891 21.1106 37.7961 21.1035C37.8032 21.0963 37.8086 21.0936 37.8064 21.0947C37.7992 21.0984 37.7351 21.128 37.5677 21.128V23.128C38.3703 23.128 39.1693 22.825 39.5822 21.9992L37.7933 21.1048ZM37.5677 21.128C37.3407 21.128 37.0609 21.0686 36.7177 20.9051L35.8578 22.7109C36.4106 22.9741 36.9841 23.128 37.5677 23.128V21.128ZM36.7697 20.9318C36.6536 20.868 36.6272 20.8269 36.631 20.8323C36.6334 20.8358 36.6391 20.8457 36.6435 20.8599C36.6479 20.874 36.6478 20.8822 36.6478 20.88H34.6478C34.6478 21.7303 35.1598 22.3289 35.8058 22.6842L36.7697 20.9318ZM36.6478 20.88C36.6478 20.5454 36.6829 20.2091 36.7543 19.87L34.7972 19.458C34.6979 19.9296 34.6478 20.4039 34.6478 20.88H36.6478ZM36.7635 19.82C36.969 18.5188 37.0638 16.3795 37.0638 13.456H35.0638C35.0638 16.3778 34.9665 18.3772 34.788 19.508L36.7635 19.82ZM37.0638 13.456C37.0638 12.8294 36.9202 12.2245 36.6466 11.6501L34.8409 12.5099C34.994 12.8315 35.0638 13.1439 35.0638 13.456H37.0638ZM36.6693 11.7014C36.434 11.1263 36.1074 10.6175 35.6585 10.2327L34.357 11.7513C34.5054 11.8785 34.6695 12.095 34.8182 12.4586L36.6693 11.7014ZM61.3338 11.44L62.1627 11.9995L62.1689 11.99L61.3338 11.44ZM63.7338 8.976L63.1525 8.16227L63.1431 8.16902L63.1338 8.176L63.7338 8.976ZM65.2378 8.432L65.4453 9.41023L65.4593 9.40724L65.4733 9.40385L65.2378 8.432ZM69.1098 8.592L68.7432 9.52241L68.76 9.529L68.7769 9.53499L69.1098 8.592ZM70.8698 9.488L70.2637 10.2834L70.2719 10.2897L70.2803 10.2958L70.8698 9.488ZM72.5018 11.504L71.5697 11.8665L71.5733 11.8754L72.5018 11.504ZM72.1818 15.504L72.8186 16.275L72.8219 16.2722L72.1818 15.504ZM70.5818 16.112L70.5554 17.1117L70.5686 17.112H70.5818V16.112ZM69.3658 16.08L69.3921 15.0803L69.3789 15.08H69.3658V16.08ZM66.7098 16.144L66.6727 15.1446L66.6622 15.1451L66.7098 16.144ZM66.0378 16.176L65.9902 15.1771L65.9687 15.1782L65.9472 15.1801L66.0378 16.176ZM63.5738 16.112L63.7152 15.1221L62.4708 14.9443L62.5774 16.1968L63.5738 16.112ZM64.6938 18.48L64.037 19.2341L64.044 19.2402L64.0511 19.2462L64.6938 18.48ZM69.6538 18.512L69.0725 17.6983L69.0052 17.7464L68.9466 17.8049L69.6538 18.512ZM70.5498 17.904L70.0536 17.0358L70.0536 17.0358L70.5498 17.904ZM72.1498 18.256L72.9306 17.6313L72.9306 17.6313L72.1498 18.256ZM71.8618 20.336L72.5094 21.0979L72.5125 21.0953L71.8618 20.336ZM70.1018 21.488L70.4898 22.4096L70.5354 22.3904L70.5788 22.3669L70.1018 21.488ZM68.4378 21.936L68.6166 22.9199L68.6166 22.9199L68.4378 21.936ZM64.1818 21.488L63.7429 22.3866L63.7514 22.3907L63.76 22.3947L64.1818 21.488ZM62.1338 20.016L62.8995 19.3728L62.8995 19.3728L62.1338 20.016ZM60.9498 17.744L59.999 18.054L60.002 18.0633L60.0053 18.0725L60.9498 17.744ZM70.1658 13.648L70.3156 14.6367L71.2268 14.4986L71.1634 13.5792L70.1658 13.648ZM69.5898 12.144L68.8248 12.7881L68.8335 12.7984L68.8423 12.8084L69.5898 12.144ZM68.1818 11.12L68.6029 10.213L68.5954 10.2095L68.5879 10.2062L68.1818 11.12ZM64.6618 11.664L64.0461 10.876L64.04 10.8807L64.034 10.8856L64.6618 11.664ZM63.4778 13.712L62.4894 13.5599L62.3225 14.6445L63.4179 14.7102L63.4778 13.712ZM61.4698 14.672C61.4698 13.5174 61.7243 12.6487 62.1626 11.9995L60.5049 10.8805C59.7912 11.9379 59.4698 13.2239 59.4698 14.672H61.4698ZM62.1689 11.99C62.6692 11.2303 63.3822 10.4897 64.3338 9.776L63.1338 8.176C62.0373 8.99831 61.1503 9.90037 60.4986 10.89L62.1689 11.99ZM64.315 9.78973C64.439 9.70115 64.7713 9.5532 65.4453 9.41023L65.0302 7.45377C64.2962 7.60947 63.6258 7.82419 63.1525 8.16227L64.315 9.78973ZM65.4733 9.40385C66.1257 9.24571 66.6623 9.176 67.0938 9.176V7.176C66.4585 7.176 65.7578 7.27696 65.0022 7.46015L65.4733 9.40385ZM67.0938 9.176C67.5877 9.176 68.1351 9.28284 68.7432 9.52241L69.4763 7.66159C68.6764 7.34649 67.8798 7.176 67.0938 7.176V9.176ZM68.7769 9.53499C69.4374 9.76808 69.9226 10.0235 70.2637 10.2834L71.4758 8.69257C70.9209 8.26979 70.2328 7.92792 69.4426 7.64901L68.7769 9.53499ZM70.2803 10.2958C70.9443 10.7804 71.3523 11.3074 71.5697 11.8664L73.4338 11.1416C73.0538 10.1646 72.3738 9.34763 71.4592 8.68021L70.2803 10.2958ZM71.5733 11.8754C71.8129 12.4744 71.9498 13.2376 71.9498 14.192H73.9498C73.9498 13.0558 73.788 12.027 73.4302 11.1326L71.5733 11.8754ZM71.9498 14.192C71.9498 14.2218 71.9391 14.4045 71.5416 14.7358L72.8219 16.2722C73.4484 15.7502 73.9498 15.0582 73.9498 14.192H71.9498ZM71.5449 14.733C71.2134 15.0069 70.9005 15.112 70.5818 15.112V17.112C71.415 17.112 72.1688 16.8118 72.8186 16.275L71.5449 14.733ZM70.6081 15.1123L69.3921 15.0803L69.3394 17.0797L70.5554 17.1117L70.6081 15.1123ZM69.3658 15.08C68.7284 15.08 67.8285 15.1019 66.6727 15.1447L66.7468 17.1433C67.895 17.1008 68.7657 17.08 69.3658 17.08V15.08ZM66.6622 15.1451L65.9902 15.1771L66.0853 17.1749L66.7573 17.1429L66.6622 15.1451ZM65.9472 15.1801C65.4844 15.2222 65.1693 15.24 64.9818 15.24V17.24C65.2635 17.24 65.6524 17.2152 66.1283 17.1719L65.9472 15.1801ZM64.9818 15.24C64.7104 15.24 64.2954 15.2049 63.7152 15.1221L63.4323 17.1019C64.0468 17.1897 64.5704 17.24 64.9818 17.24V15.24ZM62.5774 16.1968C62.6812 17.417 63.1507 18.4622 64.037 19.2341L65.3505 17.7259C64.9141 17.3458 64.637 16.8123 64.5701 16.0272L62.5774 16.1968ZM64.0511 19.2462C64.8688 19.932 65.8055 20.312 66.8378 20.312V18.312C66.334 18.312 65.8414 18.1374 65.3364 17.7138L64.0511 19.2462ZM66.8378 20.312C68.2567 20.312 69.5385 20.0415 70.3609 19.2191L68.9466 17.8049C68.7023 18.0492 68.1068 18.312 66.8378 18.312V20.312ZM70.235 19.3257C70.6919 18.9994 70.9485 18.8279 71.0459 18.7722L70.0536 17.0358C69.8523 17.1508 69.5116 17.3846 69.0725 17.6983L70.235 19.3257ZM71.0459 18.7722C70.9922 18.8029 70.9709 18.8002 71.0166 18.7919C71.0589 18.7842 71.1348 18.776 71.2538 18.776V16.776C70.8861 16.776 70.4351 16.8178 70.0536 17.0358L71.0459 18.7722ZM71.2538 18.776C71.2602 18.776 71.2613 18.7767 71.2592 18.7761C71.2571 18.7756 71.2575 18.7753 71.2615 18.7775C71.2695 18.7817 71.308 18.8047 71.3689 18.8807L72.9306 17.6313C72.5271 17.127 71.9607 16.776 71.2538 16.776V18.776ZM71.3689 18.8807C71.5234 19.0739 71.5338 19.1803 71.5338 19.216H73.5338C73.5338 18.6117 73.2881 18.0781 72.9306 17.6313L71.3689 18.8807ZM71.5338 19.216C71.5338 19.1828 71.5458 19.191 71.5083 19.2535C71.4673 19.3218 71.3803 19.4316 71.211 19.5767L72.5125 21.0953C73.0461 20.6379 73.5338 20.0117 73.5338 19.216H71.5338ZM71.2141 19.5741C70.8597 19.8753 70.3383 20.2217 69.6247 20.6091L70.5788 22.3669C71.3585 21.9436 72.0105 21.522 72.5094 21.0979L71.2141 19.5741ZM69.7137 20.5664C69.4041 20.6967 68.9298 20.8301 68.2589 20.9521L68.6166 22.9199C69.3537 22.7859 69.9887 22.6206 70.4898 22.4096L69.7137 20.5664ZM68.2589 20.9521C67.5867 21.0744 67.0646 21.128 66.6778 21.128V23.128C67.2295 23.128 67.8808 23.0536 68.6166 22.9199L68.2589 20.9521ZM66.6778 21.128C66.1188 21.128 65.4331 20.9671 64.6035 20.5813L63.76 22.3947C64.7651 22.8622 65.7433 23.128 66.6778 23.128V21.128ZM64.6206 20.5894C63.7752 20.1766 63.2258 19.7613 62.8995 19.3728L61.368 20.6592C61.9377 21.3374 62.7536 21.9034 63.7429 22.3866L64.6206 20.5894ZM62.8995 19.3728C62.5582 18.9666 62.2134 18.333 61.8942 17.4155L60.0053 18.0725C60.3688 19.1177 60.8133 19.9988 61.368 20.6592L62.8995 19.3728ZM61.9005 17.434C61.6142 16.5561 61.4698 15.6369 61.4698 14.672H59.4698C59.4698 15.8404 59.6453 16.9693 59.999 18.054L61.9005 17.434ZM66.8378 14.808C68.3597 14.808 69.5326 14.7554 70.3156 14.6367L70.0159 12.6593C69.3909 12.754 68.3451 12.808 66.8378 12.808V14.808ZM71.1634 13.5792C71.1087 12.7869 70.854 12.0611 70.3372 11.4796L68.8423 12.8084C69.0081 12.9949 69.1374 13.2718 69.1681 13.7168L71.1634 13.5792ZM70.3547 11.4999C69.8993 10.9592 69.3013 10.5373 68.6029 10.213L67.7606 12.027C68.2569 12.2574 68.5975 12.5182 68.8248 12.7881L70.3547 11.4999ZM68.5879 10.2062C68.367 10.108 68.1512 10.0255 67.9445 9.96648L67.395 11.8895C67.487 11.9158 67.6125 11.9613 67.7756 12.0338L68.5879 10.2062ZM67.9445 9.96648C67.6877 9.8931 67.4217 9.864 67.1578 9.864V11.864C67.2778 11.864 67.3532 11.8776 67.395 11.8895L67.9445 9.96648ZM67.1578 9.864C65.9845 9.864 64.9277 10.1873 64.0461 10.876L65.2774 12.452C65.7612 12.0741 66.3684 11.864 67.1578 11.864V9.864ZM64.034 10.8856C63.1806 11.5738 62.6557 12.479 62.4894 13.5599L64.4661 13.8641C64.5558 13.281 64.8203 12.8208 65.2895 12.4424L64.034 10.8856ZM63.4179 14.7102C64.5063 14.7755 65.6464 14.808 66.8378 14.808V12.808C65.6825 12.808 64.5825 12.7765 63.5376 12.7138L63.4179 14.7102ZM76.1373 12.624L77.0595 13.0108L77.0637 13.0004L76.1373 12.624ZM77.3533 10.512L76.5476 9.91961L76.5476 9.91961L77.3533 10.512ZM79.5613 8.816L79.9577 9.73406L79.9664 9.7303L79.9751 9.72637L79.5613 8.816ZM85.0973 8.72L84.6798 9.62868L84.6944 9.63539L84.7092 9.64163L85.0973 8.72ZM87.2733 10L88.1415 9.50386L88.0469 9.33827L87.8979 9.21913L87.2733 10ZM87.7213 10.832L86.8363 11.2977L86.8416 11.3078L86.8471 11.3176L87.7213 10.832ZM88.1693 11.888L87.203 12.1457L87.2109 12.1752L87.2206 12.2042L88.1693 11.888ZM86.7613 15.76L87.1708 16.6723L87.1785 16.6688L87.1862 16.6652L86.7613 15.76ZM78.8893 16.144L79.0974 15.1659L77.7506 14.8794L77.8947 16.2487L78.8893 16.144ZM79.2093 17.36L80.1309 16.9719L80.1309 16.9719L79.2093 17.36ZM79.8173 18.288L80.506 17.563L80.498 17.5554L80.4899 17.5481L79.8173 18.288ZM81.0653 19.088L80.7641 20.0416L80.7932 20.0508L80.8227 20.0581L81.0653 19.088ZM85.2573 18.64L84.71 17.803L84.7028 17.8077L84.6957 17.8125L85.2573 18.64ZM87.4653 18.48L86.697 19.1202L86.7108 19.1367L86.7253 19.1527L87.4653 18.48ZM86.2173 21.392L85.7774 20.4939L85.77 20.4976L86.2173 21.392ZM79.6893 21.616L80.0294 20.6756L80.0294 20.6756L79.6893 21.616ZM77.2893 20.08L76.4294 20.5905L76.4803 20.6763L76.5471 20.7503L77.2893 20.08ZM76.2013 17.584L75.2505 17.894L76.2013 17.584ZM81.2893 11.056L81.5804 12.0127L81.593 12.0088L81.6055 12.0047L81.2893 11.056ZM80.1373 11.76L80.8655 12.4454L80.8795 12.4304L80.8929 12.4149L80.1373 11.76ZM79.3693 12.752L78.501 12.2559L78.4872 12.28L78.4748 12.3048L79.3693 12.752ZM79.0813 13.872L78.0858 13.7772L77.9815 14.872H79.0813V13.872ZM79.7533 13.904L79.8528 12.909L79.8528 12.909L79.7533 13.904ZM80.3613 13.968L80.2508 14.9619L80.2608 14.963L80.2707 14.9639L80.3613 13.968ZM84.6173 13.68L84.141 12.8007L84.133 12.805L84.1252 12.8094L84.6173 13.68ZM84.5213 11.344L83.974 12.181L83.9812 12.1857L83.9884 12.1902L84.5213 11.344ZM76.7213 14.768C76.7213 14.1233 76.837 13.5411 77.0594 13.0107L75.2151 12.2373C74.8828 13.0296 74.7213 13.8767 74.7213 14.768H76.7213ZM77.0637 13.0004C77.3039 12.4092 77.6642 11.7771 78.1589 11.1044L76.5476 9.91961C75.9756 10.6975 75.5253 11.4735 75.2108 12.2476L77.0637 13.0004ZM78.1589 11.1044C78.5735 10.5405 79.1594 10.0788 79.9577 9.73406L79.1648 7.89794C78.0858 8.36388 77.1997 9.0328 76.5476 9.91961L78.1589 11.1044ZM79.9751 9.72637C80.7741 9.36316 81.6557 9.176 82.6333 9.176V7.176C81.3922 7.176 80.2257 7.41551 79.1474 7.90563L79.9751 9.72637ZM82.6333 9.176C83.3398 9.176 84.019 9.32507 84.6798 9.62868L85.5148 7.81132C84.5969 7.3896 83.6334 7.176 82.6333 7.176V9.176ZM84.7092 9.64163C85.4411 9.94979 86.0856 10.3305 86.6486 10.7809L87.8979 9.21913C87.1809 8.64547 86.3748 8.17287 85.4853 7.79836L84.7092 9.64163ZM86.405 10.4961C86.4806 10.6284 86.6224 10.8912 86.8363 11.2977L88.6062 10.3663C88.3935 9.96209 88.2366 9.67027 88.1415 9.50386L86.405 10.4961ZM86.8471 11.3176C87.0326 11.6516 87.1445 11.9261 87.203 12.1457L89.1355 11.6303C89.0234 11.2099 88.8366 10.7804 88.5954 10.3464L86.8471 11.3176ZM87.2206 12.2042C87.2928 12.421 87.3293 12.6448 87.3293 12.88H89.3293C89.3293 12.4325 89.259 11.995 89.1179 11.5718L87.2206 12.2042ZM87.3293 12.88C87.3293 13.4774 87.2196 13.8988 87.059 14.1938C86.9054 14.4759 86.6779 14.6945 86.3363 14.8548L87.1862 16.6652C87.89 16.3349 88.4464 15.8281 88.8155 15.1502C89.1776 14.4852 89.3293 13.7119 89.3293 12.88H87.3293ZM86.3517 14.8477C85.4755 15.2411 84.3043 15.464 82.7933 15.464V17.464C84.4822 17.464 85.9563 17.2176 87.1708 16.6723L86.3517 14.8477ZM82.7933 15.464C81.2289 15.464 80.0047 15.3589 79.0974 15.1659L78.6811 17.1221C79.7791 17.3557 81.1576 17.464 82.7933 17.464V15.464ZM77.8947 16.2487C77.9485 16.7589 78.0819 17.2595 78.2876 17.7481L80.1309 16.9719C79.9953 16.6499 79.9154 16.3397 79.8838 16.0393L77.8947 16.2487ZM78.2876 17.7481C78.4942 18.2388 78.7691 18.6866 79.1446 19.0279L80.4899 17.5481C80.396 17.4627 80.2656 17.2919 80.1309 16.9719L78.2876 17.7481ZM79.1285 19.013C79.6254 19.4851 80.1692 19.8537 80.7641 20.0416L81.3664 18.1344C81.1506 18.0663 80.8624 17.9016 80.506 17.563L79.1285 19.013ZM80.8227 20.0581C81.3615 20.1928 82.0181 20.248 82.7613 20.248V18.248C82.0964 18.248 81.6224 18.1965 81.3078 18.1179L80.8227 20.0581ZM82.7613 20.248C83.9377 20.248 84.9941 20.0271 85.8188 19.4675L84.6957 17.8125C84.3258 18.0636 83.7181 18.248 82.7613 18.248V20.248ZM85.8045 19.477C86.0515 19.3155 86.2431 19.2124 86.3844 19.1523C86.5351 19.0883 86.5758 19.096 86.5373 19.096V17.096C86.2001 17.096 85.878 17.1944 85.6021 17.3117C85.3167 17.4329 85.0177 17.6019 84.71 17.803L85.8045 19.477ZM86.5373 19.096C86.6357 19.096 86.6801 19.1116 86.6909 19.116C86.6962 19.1182 86.6968 19.1191 86.6952 19.1179C86.6935 19.1167 86.6941 19.1166 86.697 19.1202L88.2335 17.8398C87.7892 17.3067 87.1688 17.096 86.5373 17.096V19.096ZM86.7253 19.1527C86.7376 19.1662 86.7853 19.2176 86.7853 19.408H88.7853C88.7853 18.8304 88.6196 18.2632 88.2052 17.8073L86.7253 19.1527ZM86.7853 19.408C86.7853 19.6782 86.6504 20.0663 85.7774 20.4939L86.6571 22.2901C87.8748 21.6937 88.7853 20.7591 88.7853 19.408H86.7853ZM85.77 20.4976C84.9028 20.9312 83.8967 21.16 82.7292 21.16V23.16C84.1645 23.16 85.4837 22.8768 86.6645 22.2864L85.77 20.4976ZM82.7292 21.16C81.826 21.16 80.9275 21.0005 80.0294 20.6756L79.3491 22.5564C80.4563 22.9568 81.5845 23.16 82.7292 23.16V21.16ZM80.0294 20.6756C79.1507 20.3578 78.4992 19.9277 78.0314 19.4097L76.5471 20.7503C77.274 21.555 78.2225 22.1489 79.3491 22.5564L80.0294 20.6756ZM78.1491 19.5695C77.7906 18.9657 77.4556 18.205 77.152 17.274L75.2505 17.894C75.5869 18.9257 75.9772 19.829 76.4294 20.5905L78.1491 19.5695ZM77.152 17.274C76.8598 16.3778 76.7213 15.5441 76.7213 14.768H74.7213C74.7213 15.7839 74.9027 16.8275 75.2505 17.894L77.152 17.274ZM82.7613 9.8C82.1697 9.8 81.572 9.90766 80.973 10.1073L81.6055 12.0047C82.0305 11.863 82.4142 11.8 82.7613 11.8V9.8ZM80.9981 10.0993C80.3655 10.2918 79.8061 10.6153 79.3816 11.1051L80.8929 12.4149C81.0231 12.2647 81.2316 12.1188 81.5804 12.0127L80.9981 10.0993ZM79.4091 11.0746C79.0355 11.4715 78.7239 11.8659 78.501 12.2559L80.2375 13.2481C80.356 13.0408 80.5563 12.7738 80.8655 12.4454L79.4091 11.0746ZM78.4748 12.3048C78.2549 12.7447 78.1363 13.2465 78.0858 13.7772L80.0767 13.9668C80.1115 13.6015 80.185 13.3566 80.2637 13.1992L78.4748 12.3048ZM79.0813 14.872C79.2858 14.872 79.4764 14.8813 79.6537 14.899L79.8528 12.909C79.6034 12.884 79.3461 12.872 79.0813 12.872V14.872ZM79.6537 14.899C79.8638 14.92 80.0628 14.941 80.2508 14.9619L80.4717 12.9741C80.2757 12.9523 80.0693 12.9306 79.8528 12.909L79.6537 14.899ZM80.2707 14.9639C81.2159 15.0498 81.9568 15.096 82.4733 15.096V13.096C82.051 13.096 81.3839 13.0568 80.4518 12.9721L80.2707 14.9639ZM82.4733 15.096C83.4827 15.096 84.3997 14.9517 85.1093 14.5506L84.1252 12.8094C83.8535 12.963 83.3411 13.096 82.4733 13.096V15.096ZM85.0935 14.5593C85.8364 14.1569 86.3853 13.4901 86.3853 12.56H84.3853C84.3853 12.5853 84.382 12.5982 84.3804 12.6033C84.379 12.6081 84.3763 12.6151 84.3685 12.6265C84.3521 12.6504 84.2963 12.7166 84.141 12.8007L85.0935 14.5593ZM86.3853 12.56C86.3853 11.6139 85.7601 10.9423 85.0541 10.4978L83.9884 12.1902C84.204 12.3259 84.3082 12.4347 84.3541 12.4992C84.3754 12.5292 84.382 12.5467 84.3838 12.5518C84.3852 12.556 84.3853 12.5573 84.3853 12.56H86.3853ZM85.0685 10.507C84.3633 10.0459 83.5883 9.8 82.7613 9.8V11.8C83.1715 11.8 83.5699 11.9167 83.974 12.181L85.0685 10.507Z" fill="#234C34" fill-opacity="0.76" mask="url(#path-1-inside-1_813_6)"/>
</svg>
